<svg xmlns="http://www.w3.org/2000/svg" xmlns:xlink="http://www.w3.org/1999/xlink" width="40" zoomAndPan="magnify" viewBox="0 0 30 30.000001" height="40" preserveAspectRatio="xMidYMid meet" version="1.0"><defs><g/><clipPath id="356bfa1771"><path d="M 0.484375 0 L 29.515625 0 L 29.515625 29.03125 L 0.484375 29.03125 Z M 0.484375 0 " clip-rule="nonzero"/></clipPath></defs><g clip-path="url(#356bfa1771)"><path fill="#ffffff" d="M 0.484375 0 L 29.515625 0 L 29.515625 36.289062 L 0.484375 36.289062 Z M 0.484375 0 " fill-opacity="1" fill-rule="nonzero"/><path fill="#ffffff" d="M 0.484375 0 L 29.515625 0 L 29.515625 29.03125 L 0.484375 29.03125 Z M 0.484375 0 " fill-opacity="1" fill-rule="nonzero"/><path fill="#ffffff" d="M 0.484375 0 L 29.515625 0 L 29.515625 29.03125 L 0.484375 29.03125 Z M 0.484375 0 " fill-opacity="1" fill-rule="nonzero"/></g><g fill="#051b54" fill-opacity="1"><g transform="translate(4.907833, 14.787406)"><g><path d="M 6.417969 -6.667969 C 5.433594 -7.386719 3.480469 -7.289062 2.445312 -6.949219 C 0.84375 -6.417969 0.0390625 -5.519531 -0.0273438 -4.910156 C -0.0703125 -4.703125 0.0273438 -4.492188 0.207031 -4.371094 C 0.582031 -4.148438 1.28125 -4.335938 2.136719 -4.898438 C 2.207031 -4.945312 2.222656 -5.042969 2.175781 -5.113281 C 2.132812 -5.179688 2.039062 -5.199219 1.96875 -5.152344 C 1.097656 -4.578125 0.558594 -4.507812 0.363281 -4.628906 C 0.289062 -4.6875 0.246094 -4.785156 0.269531 -4.875 C 0.316406 -5.289062 0.976562 -6.140625 2.539062 -6.664062 C 3.488281 -6.980469 5.347656 -7.070312 6.238281 -6.425781 C 6.566406 -6.203125 6.753906 -5.832031 6.742188 -5.441406 C 6.753906 -4.984375 6.558594 -4.550781 6.210938 -4.257812 C 5.460938 -3.605469 4.085938 -3.46875 3.039062 -3.46875 C 2.976562 -3.46875 2.921875 -3.5 2.882812 -3.550781 C 2.847656 -3.597656 2.835938 -3.660156 2.855469 -3.714844 C 3.128906 -4.636719 3.347656 -5.421875 3.367188 -5.492188 C 3.382812 -5.542969 3.371094 -5.601562 3.332031 -5.640625 C 3.292969 -5.679688 3.234375 -5.699219 3.183594 -5.679688 C 3.128906 -5.667969 3.089844 -5.625 3.078125 -5.570312 C 3.074219 -5.554688 2.820312 -4.648438 2.515625 -3.628906 C 2.492188 -3.542969 2.414062 -3.488281 2.320312 -3.492188 C 1.917969 -3.515625 1.652344 -3.550781 1.648438 -3.550781 C 1.5625 -3.5625 1.488281 -3.503906 1.476562 -3.421875 C 1.464844 -3.335938 1.523438 -3.261719 1.601562 -3.25 C 1.613281 -3.25 1.828125 -3.222656 2.152344 -3.160156 C 2.207031 -3.148438 2.25 -3.113281 2.28125 -3.066406 C 2.308594 -3.019531 2.316406 -2.96875 2.304688 -2.917969 C 2.113281 -2.269531 1.894531 -1.632812 1.632812 -1.003906 C 1.597656 -0.929688 1.625 -0.84375 1.699219 -0.804688 C 1.773438 -0.769531 1.867188 -0.796875 1.90625 -0.875 C 2.175781 -1.527344 2.414062 -2.199219 2.609375 -2.882812 C 2.636719 -2.976562 2.734375 -3.03125 2.832031 -3.011719 C 3.820312 -2.773438 5.113281 -2.355469 5.507812 -1.730469 C 5.625 -1.5625 5.652344 -1.355469 5.589844 -1.167969 C 5.152344 0.222656 1.769531 -0.476562 0.503906 -0.863281 C 0.425781 -0.882812 0.34375 -0.839844 0.320312 -0.757812 C 0.292969 -0.679688 0.339844 -0.597656 0.417969 -0.574219 C 0.535156 -0.535156 2.207031 -0.0351562 3.683594 -0.0351562 C 4.699219 -0.0351562 5.625 -0.277344 5.875 -1.074219 C 5.96875 -1.34375 5.929688 -1.648438 5.765625 -1.890625 C 5.480469 -2.335938 4.832031 -2.6875 4.125 -2.941406 C 4.0625 -2.964844 4.019531 -3.027344 4.03125 -3.097656 C 4.039062 -3.164062 4.089844 -3.214844 4.160156 -3.222656 C 4.992188 -3.3125 5.847656 -3.542969 6.40625 -4.027344 C 6.816406 -4.375 7.054688 -4.894531 7.046875 -5.441406 C 7.058594 -5.929688 6.824219 -6.394531 6.417969 -6.667969 Z M 6.417969 -6.667969 "/></g></g></g><g fill="#051b54" fill-opacity="1"><g transform="translate(11.254955, 14.787406)"><g><path d="M 3.066406 0.21875 C 3.585938 0.015625 3.988281 -0.878906 4.25 -1.683594 C 4.289062 -1.808594 4.375 -1.917969 4.492188 -1.980469 C 4.835938 -2.175781 5.175781 -2.355469 5.46875 -2.5 C 5.542969 -2.53125 5.578125 -2.625 5.539062 -2.699219 C 5.503906 -2.773438 5.410156 -2.808594 5.335938 -2.769531 C 5.261719 -2.734375 5.03125 -2.625 4.734375 -2.464844 C 4.679688 -2.433594 4.617188 -2.441406 4.570312 -2.476562 C 4.527344 -2.511719 4.507812 -2.566406 4.519531 -2.625 C 4.570312 -2.824219 4.601562 -2.96875 4.613281 -3.027344 C 4.625 -3.085938 4.601562 -3.148438 4.542969 -3.183594 C 4.492188 -3.214844 4.421875 -3.214844 4.371094 -3.175781 C 4.355469 -3.160156 2.207031 -1.550781 1 -2.230469 C 0.601562 -2.453125 0.5625 -2.914062 0.597656 -3.257812 C 0.710938 -4.453125 1.890625 -6.078125 3.445312 -6.582031 C 4.125 -6.808594 4.589844 -6.6875 4.75 -6.25 C 5.027344 -5.539062 4.421875 -4.0625 2.859375 -3.382812 C 2.78125 -3.347656 2.746094 -3.257812 2.78125 -3.183594 C 2.816406 -3.109375 2.902344 -3.074219 2.980469 -3.109375 C 4.59375 -3.808594 5.398438 -5.40625 5.039062 -6.359375 C 4.808594 -6.949219 4.183594 -7.140625 3.355469 -6.871094 C 1.683594 -6.324219 0.425781 -4.578125 0.292969 -3.285156 C 0.234375 -2.671875 0.429688 -2.207031 0.851562 -1.96875 C 1.816406 -1.425781 3.207031 -2.085938 3.980469 -2.550781 C 4.019531 -2.578125 4.074219 -2.574219 4.113281 -2.542969 C 4.152344 -2.511719 4.171875 -2.457031 4.152344 -2.414062 L 4.085938 -2.164062 C 4.066406 -2.113281 4.03125 -2.066406 3.988281 -2.039062 C 3.148438 -1.535156 2.234375 -0.867188 2.195312 -0.34375 C 2.175781 -0.148438 2.273438 0.0351562 2.433594 0.132812 C 2.554688 0.21875 2.695312 0.265625 2.835938 0.265625 C 2.914062 0.265625 2.992188 0.246094 3.066406 0.21875 Z M 3.757812 -1.222656 C 3.53125 -0.660156 3.257812 -0.179688 2.957031 -0.0585938 C 2.835938 -0.015625 2.707031 -0.0351562 2.613281 -0.113281 C 2.5 -0.195312 2.488281 -0.265625 2.492188 -0.316406 C 2.515625 -0.597656 2.964844 -0.992188 3.542969 -1.394531 C 3.597656 -1.429688 3.664062 -1.429688 3.714844 -1.390625 C 3.769531 -1.351562 3.785156 -1.28125 3.757812 -1.222656 Z M 3.757812 -1.222656 "/></g></g></g><g fill="#051b54" fill-opacity="1"><g transform="translate(16.235005, 14.787406)"><g><path d="M 2.097656 0.0234375 C 4.003906 -0.820312 5.167969 -3.453125 5.847656 -5.148438 C 5.851562 -5.175781 5.882812 -5.1875 5.910156 -5.179688 C 5.9375 -5.175781 5.957031 -5.148438 5.957031 -5.117188 C 5.75 -3.378906 5.335938 -1.109375 5.234375 -0.5625 C 5.222656 -0.5 5.253906 -0.429688 5.320312 -0.402344 C 5.382812 -0.375 5.457031 -0.390625 5.496094 -0.441406 C 6.214844 -1.308594 7.5 -3.40625 8.359375 -4.855469 C 8.375 -4.875 8.410156 -4.886719 8.433594 -4.875 C 8.460938 -4.863281 8.472656 -4.835938 8.464844 -4.808594 C 7.765625 -2.25 7.324219 -0.101562 8.164062 0.160156 C 8.242188 0.183594 8.328125 0.136719 8.351562 0.0585938 C 8.375 -0.0234375 8.335938 -0.101562 8.253906 -0.132812 C 7.511719 -0.355469 8.574219 -4.09375 9.03125 -5.6875 C 9.09375 -5.929688 9.15625 -6.144531 9.214844 -6.347656 C 9.230469 -6.421875 9.191406 -6.496094 9.121094 -6.523438 C 9.046875 -6.554688 8.964844 -6.523438 8.933594 -6.457031 C 8.738281 -6.078125 7.058594 -3.175781 5.886719 -1.476562 C 5.863281 -1.4375 5.8125 -1.425781 5.773438 -1.441406 C 5.734375 -1.457031 5.710938 -1.5 5.714844 -1.546875 C 5.960938 -2.933594 6.335938 -5.238281 6.363281 -6.449219 C 6.371094 -6.519531 6.324219 -6.582031 6.253906 -6.601562 C 6.1875 -6.617188 6.117188 -6.582031 6.082031 -6.519531 C 5.996094 -6.351562 5.882812 -6.066406 5.738281 -5.699219 C 5.113281 -4.101562 3.941406 -1.121094 1.976562 -0.253906 C 1.402344 0 0.976562 -0.113281 0.765625 -0.304688 C 0.601562 -0.449219 0.546875 -0.671875 0.613281 -0.875 C 0.753906 -1.28125 1.316406 -1.5625 2.113281 -1.632812 C 2.152344 -1.632812 2.1875 -1.648438 2.21875 -1.683594 C 2.238281 -1.710938 2.257812 -1.75 2.25 -1.792969 C 2.246094 -1.871094 2.171875 -1.9375 2.089844 -1.929688 C 0.757812 -1.816406 0.414062 -1.222656 0.328125 -0.976562 C 0.21875 -0.65625 0.308594 -0.304688 0.5625 -0.0820312 C 0.777344 0.101562 1.050781 0.207031 1.339844 0.195312 C 1.597656 0.191406 1.859375 0.132812 2.097656 0.0234375 Z M 2.097656 0.0234375 "/></g></g></g><g fill="#051b54" fill-opacity="1"><g transform="translate(11.000503, 21.199784)"><g><path d="M 1.761719 -1.1875 C 1.84375 -1.1875 1.910156 -1.246094 1.917969 -1.328125 C 1.921875 -1.402344 1.867188 -1.476562 1.785156 -1.488281 C 1.382812 -1.550781 1.011719 -1.738281 0.71875 -2.03125 C 0.675781 -2.074219 0.546875 -2.214844 0.585938 -2.320312 C 0.609375 -2.375 0.695312 -2.421875 0.78125 -2.46875 L 1.976562 -3.054688 C 2.050781 -3.089844 2.085938 -3.179688 2.042969 -3.253906 C 2.007812 -3.328125 1.917969 -3.359375 1.84375 -3.324219 L 0.648438 -2.738281 C 0.5 -2.679688 0.378906 -2.570312 0.304688 -2.429688 C 0.242188 -2.203125 0.320312 -1.964844 0.503906 -1.820312 C 0.839844 -1.488281 1.273438 -1.261719 1.738281 -1.1875 C 1.75 -1.1875 1.757812 -1.1875 1.761719 -1.1875 Z M 1.761719 -1.1875 "/></g></g></g><g fill="#051b54" fill-opacity="1"><g transform="translate(13.353238, 21.199784)"><g><path d="M 0.5625 -0.0625 C 1.585938 -1.585938 2.691406 -3.054688 3.875 -4.457031 C 3.925781 -4.519531 3.921875 -4.617188 3.859375 -4.667969 C 3.792969 -4.71875 3.699219 -4.714844 3.644531 -4.648438 C 2.453125 -3.238281 1.335938 -1.761719 0.308594 -0.230469 C 0.28125 -0.183594 0.277344 -0.125 0.304688 -0.0742188 C 0.328125 -0.0273438 0.378906 0 0.4375 0 C 0.480469 0.00390625 0.535156 -0.0234375 0.5625 -0.0625 Z M 0.5625 -0.0625 "/></g></g></g><g fill="#051b54" fill-opacity="1"><g transform="translate(16.658539, 21.199784)"><g><path d="M 0.5 -1.050781 L 1.695312 -1.636719 C 1.84375 -1.695312 1.96875 -1.800781 2.039062 -1.945312 C 2.101562 -2.171875 2.019531 -2.410156 1.84375 -2.550781 C 1.503906 -2.886719 1.074219 -3.113281 0.601562 -3.1875 C 0.550781 -3.199219 0.492188 -3.175781 0.460938 -3.132812 C 0.425781 -3.09375 0.414062 -3.03125 0.4375 -2.984375 C 0.453125 -2.933594 0.503906 -2.894531 0.558594 -2.886719 C 0.964844 -2.824219 1.335938 -2.628906 1.625 -2.34375 C 1.664062 -2.296875 1.796875 -2.152344 1.761719 -2.054688 C 1.734375 -1.996094 1.648438 -1.953125 1.5625 -1.90625 L 0.367188 -1.320312 C 0.304688 -1.292969 0.269531 -1.222656 0.285156 -1.152344 C 0.304688 -1.085938 0.367188 -1.039062 0.4375 -1.039062 C 0.460938 -1.039062 0.480469 -1.042969 0.5 -1.050781 Z M 0.5 -1.050781 "/></g></g></g></svg>