<svg xmlns="http://www.w3.org/2000/svg" xmlns:xlink="http://www.w3.org/1999/xlink" width="50" zoomAndPan="magnify" viewBox="0 0 37.5 37.499999" height="50" preserveAspectRatio="xMidYMid meet" version="1.0"><defs><clipPath id="24a21fcebf"><path d="M 1.3125 1.3125 L 36.5625 1.3125 L 36.5625 36.5625 L 1.3125 36.5625 Z M 1.3125 1.3125 " clip-rule="nonzero"/></clipPath></defs><g clip-path="url(#24a21fcebf)"><path fill="#051b54" d="M 36.5625 18.9375 C 36.5625 19.515625 36.535156 20.089844 36.476562 20.664062 C 36.421875 21.238281 36.335938 21.808594 36.222656 22.375 C 36.109375 22.941406 35.972656 23.5 35.804688 24.054688 C 35.636719 24.605469 35.441406 25.148438 35.222656 25.683594 C 35 26.214844 34.753906 26.738281 34.480469 27.246094 C 34.210938 27.753906 33.914062 28.25 33.59375 28.730469 C 33.269531 29.210938 32.929688 29.671875 32.5625 30.117188 C 32.195312 30.566406 31.808594 30.992188 31.398438 31.398438 C 30.992188 31.808594 30.566406 32.195312 30.117188 32.5625 C 29.671875 32.929688 29.210938 33.269531 28.730469 33.59375 C 28.25 33.914062 27.753906 34.210938 27.246094 34.480469 C 26.738281 34.753906 26.214844 35 25.683594 35.222656 C 25.148438 35.441406 24.605469 35.636719 24.054688 35.804688 C 23.5 35.972656 22.941406 36.109375 22.375 36.222656 C 21.808594 36.335938 21.238281 36.421875 20.664062 36.476562 C 20.089844 36.535156 19.515625 36.5625 18.9375 36.5625 C 18.359375 36.5625 17.785156 36.535156 17.210938 36.476562 C 16.636719 36.421875 16.066406 36.335938 15.5 36.222656 C 14.933594 36.109375 14.375 35.972656 13.820312 35.804688 C 13.269531 35.636719 12.726562 35.441406 12.191406 35.222656 C 11.660156 35 11.136719 34.753906 10.628906 34.480469 C 10.121094 34.210938 9.625 33.914062 9.144531 33.59375 C 8.664062 33.269531 8.203125 32.929688 7.757812 32.5625 C 7.308594 32.195312 6.882812 31.808594 6.476562 31.398438 C 6.066406 30.992188 5.679688 30.566406 5.3125 30.117188 C 4.945312 29.671875 4.605469 29.210938 4.28125 28.730469 C 3.960938 28.25 3.664062 27.753906 3.394531 27.246094 C 3.121094 26.738281 2.875 26.214844 2.652344 25.683594 C 2.433594 25.148438 2.238281 24.605469 2.070312 24.054688 C 1.902344 23.5 1.765625 22.941406 1.652344 22.375 C 1.539062 21.808594 1.453125 21.238281 1.398438 20.664062 C 1.339844 20.089844 1.3125 19.515625 1.3125 18.9375 C 1.3125 18.359375 1.339844 17.785156 1.398438 17.210938 C 1.453125 16.636719 1.539062 16.066406 1.652344 15.5 C 1.765625 14.933594 1.902344 14.375 2.070312 13.820312 C 2.238281 13.269531 2.433594 12.726562 2.652344 12.191406 C 2.875 11.660156 3.121094 11.136719 3.394531 10.628906 C 3.664062 10.121094 3.960938 9.625 4.28125 9.144531 C 4.605469 8.664062 4.945312 8.203125 5.3125 7.757812 C 5.679688 7.308594 6.066406 6.882812 6.476562 6.476562 C 6.882812 6.066406 7.308594 5.679688 7.757812 5.3125 C 8.203125 4.945312 8.664062 4.605469 9.144531 4.28125 C 9.625 3.960938 10.121094 3.664062 10.628906 3.394531 C 11.136719 3.121094 11.660156 2.875 12.191406 2.652344 C 12.726562 2.433594 13.269531 2.238281 13.820312 2.070312 C 14.375 1.902344 14.933594 1.765625 15.5 1.652344 C 16.066406 1.539062 16.636719 1.453125 17.210938 1.398438 C 17.785156 1.339844 18.359375 1.3125 18.9375 1.3125 C 19.515625 1.3125 20.089844 1.339844 20.664062 1.398438 C 21.238281 1.453125 21.808594 1.539062 22.375 1.652344 C 22.941406 1.765625 23.5 1.902344 24.054688 2.070312 C 24.605469 2.238281 25.148438 2.433594 25.683594 2.652344 C 26.214844 2.875 26.738281 3.121094 27.246094 3.394531 C 27.753906 3.664062 28.25 3.960938 28.730469 4.28125 C 29.210938 4.605469 29.671875 4.945312 30.117188 5.3125 C 30.566406 5.679688 30.992188 6.066406 31.398438 6.476562 C 31.808594 6.882812 32.195312 7.308594 32.5625 7.757812 C 32.929688 8.203125 33.269531 8.664062 33.59375 9.144531 C 33.914062 9.625 34.210938 10.121094 34.480469 10.628906 C 34.753906 11.136719 35 11.660156 35.222656 12.191406 C 35.441406 12.726562 35.636719 13.269531 35.804688 13.820312 C 35.972656 14.375 36.109375 14.933594 36.222656 15.5 C 36.335938 16.066406 36.421875 16.636719 36.476562 17.210938 C 36.535156 17.785156 36.5625 18.359375 36.5625 18.9375 Z M 36.5625 18.9375 " fill-opacity="1" fill-rule="nonzero"/></g><path fill="#ffffff" d="M 15.710938 28.234375 C 23.527344 28.234375 27.804688 21.757812 27.804688 16.144531 C 27.804688 15.957031 27.804688 15.773438 27.792969 15.597656 C 28.621094 15 29.34375 14.25 29.917969 13.394531 C 29.160156 13.730469 28.339844 13.957031 27.476562 14.0625 C 28.359375 13.535156 29.027344 12.707031 29.34375 11.710938 C 28.527344 12.195312 27.617188 12.546875 26.648438 12.742188 C 25.871094 11.914062 24.769531 11.402344 23.546875 11.402344 C 21.203125 11.402344 19.296875 13.304688 19.296875 15.652344 C 19.296875 15.984375 19.335938 16.3125 19.414062 16.621094 C 15.878906 16.445312 12.75 14.75 10.652344 12.179688 C 10.292969 12.804688 10.082031 13.535156 10.082031 14.3125 C 10.082031 15.78125 10.828125 17.085938 11.976562 17.84375 C 11.28125 17.828125 10.628906 17.632812 10.054688 17.316406 C 10.054688 17.332031 10.054688 17.351562 10.054688 17.367188 C 10.054688 19.429688 11.515625 21.140625 13.464844 21.539062 C 13.113281 21.632812 12.734375 21.6875 12.347656 21.6875 C 12.074219 21.6875 11.808594 21.660156 11.542969 21.609375 C 12.082031 23.300781 13.648438 24.523438 15.507812 24.558594 C 14.054688 25.695312 12.222656 26.375 10.230469 26.375 C 9.886719 26.375 9.550781 26.359375 9.21875 26.3125 C 11.078125 27.53125 13.316406 28.234375 15.710938 28.234375 " fill-opacity="1" fill-rule="nonzero"/></svg>